<mxfile host="app.diagrams.net" modified="2023-07-13T13:23:41.610Z" agent="Mozilla/5.0 (X11; Linux x86_64) AppleWebKit/537.36 (KHTML, like Gecko) Chrome/114.0.0.0 Safari/537.36" etag="kYch2MejO5a18lot4imr" version="21.6.1" type="device">
  <diagram name="Page-1" id="evxN6-voMIMS6oItUcm3">
    <mxGraphModel dx="974" dy="621" grid="1" gridSize="10" guides="1" tooltips="1" connect="1" arrows="1" fold="1" page="1" pageScale="1" pageWidth="850" pageHeight="1100" math="0" shadow="0">
      <root>
        <mxCell id="0" />
        <mxCell id="1" parent="0" />
        <mxCell id="_CZaPzuoKHNaPqmI9wYe-3" value="" style="edgeStyle=orthogonalEdgeStyle;rounded=0;orthogonalLoop=1;jettySize=auto;html=1;" edge="1" parent="1" target="_CZaPzuoKHNaPqmI9wYe-2">
          <mxGeometry relative="1" as="geometry">
            <mxPoint x="400.0000000000001" y="90" as="sourcePoint" />
          </mxGeometry>
        </mxCell>
        <mxCell id="_CZaPzuoKHNaPqmI9wYe-5" value="" style="edgeStyle=orthogonalEdgeStyle;rounded=0;orthogonalLoop=1;jettySize=auto;html=1;" edge="1" parent="1" source="_CZaPzuoKHNaPqmI9wYe-2" target="_CZaPzuoKHNaPqmI9wYe-4">
          <mxGeometry relative="1" as="geometry" />
        </mxCell>
        <mxCell id="_CZaPzuoKHNaPqmI9wYe-2" value="sd,&amp;nbsp; i , ave, n, a, b = 0&lt;br&gt;x = []" style="whiteSpace=wrap;html=1;" vertex="1" parent="1">
          <mxGeometry x="285" y="130" width="230" height="60" as="geometry" />
        </mxCell>
        <mxCell id="_CZaPzuoKHNaPqmI9wYe-7" value="" style="edgeStyle=orthogonalEdgeStyle;rounded=0;orthogonalLoop=1;jettySize=auto;html=1;" edge="1" parent="1" source="_CZaPzuoKHNaPqmI9wYe-4" target="_CZaPzuoKHNaPqmI9wYe-6">
          <mxGeometry relative="1" as="geometry" />
        </mxCell>
        <mxCell id="_CZaPzuoKHNaPqmI9wYe-4" value="n" style="shape=parallelogram;perimeter=parallelogramPerimeter;whiteSpace=wrap;html=1;fixedSize=1;" vertex="1" parent="1">
          <mxGeometry x="340" y="230" width="120" height="60" as="geometry" />
        </mxCell>
        <mxCell id="_CZaPzuoKHNaPqmI9wYe-14" value="" style="edgeStyle=orthogonalEdgeStyle;rounded=0;orthogonalLoop=1;jettySize=auto;html=1;" edge="1" parent="1" source="_CZaPzuoKHNaPqmI9wYe-6" target="_CZaPzuoKHNaPqmI9wYe-13">
          <mxGeometry relative="1" as="geometry" />
        </mxCell>
        <mxCell id="_CZaPzuoKHNaPqmI9wYe-15" value="Yes" style="edgeLabel;html=1;align=center;verticalAlign=middle;resizable=0;points=[];" vertex="1" connectable="0" parent="_CZaPzuoKHNaPqmI9wYe-14">
          <mxGeometry x="-0.1492" y="-1" relative="1" as="geometry">
            <mxPoint as="offset" />
          </mxGeometry>
        </mxCell>
        <mxCell id="_CZaPzuoKHNaPqmI9wYe-16" value="" style="edgeStyle=orthogonalEdgeStyle;rounded=0;orthogonalLoop=1;jettySize=auto;html=1;exitX=0.09;exitY=0.473;exitDx=0;exitDy=0;exitPerimeter=0;entryX=0;entryY=0.5;entryDx=0;entryDy=0;" edge="1" parent="1" source="_CZaPzuoKHNaPqmI9wYe-6" target="_CZaPzuoKHNaPqmI9wYe-25">
          <mxGeometry relative="1" as="geometry">
            <mxPoint x="340.0000000000001" y="369.9999999999999" as="sourcePoint" />
            <mxPoint x="250" y="720" as="targetPoint" />
            <Array as="points">
              <mxPoint x="240" y="368" />
              <mxPoint x="240" y="690" />
            </Array>
          </mxGeometry>
        </mxCell>
        <mxCell id="_CZaPzuoKHNaPqmI9wYe-17" value="No" style="edgeLabel;html=1;align=center;verticalAlign=middle;resizable=0;points=[];" vertex="1" connectable="0" parent="_CZaPzuoKHNaPqmI9wYe-16">
          <mxGeometry x="-0.1371" y="2" relative="1" as="geometry">
            <mxPoint as="offset" />
          </mxGeometry>
        </mxCell>
        <mxCell id="_CZaPzuoKHNaPqmI9wYe-6" value="i &amp;lt; n" style="rhombus;whiteSpace=wrap;html=1;" vertex="1" parent="1">
          <mxGeometry x="360" y="330" width="80" height="80" as="geometry" />
        </mxCell>
        <mxCell id="_CZaPzuoKHNaPqmI9wYe-22" value="" style="edgeStyle=orthogonalEdgeStyle;rounded=0;orthogonalLoop=1;jettySize=auto;html=1;" edge="1" parent="1" source="_CZaPzuoKHNaPqmI9wYe-13" target="_CZaPzuoKHNaPqmI9wYe-21">
          <mxGeometry relative="1" as="geometry" />
        </mxCell>
        <mxCell id="_CZaPzuoKHNaPqmI9wYe-13" value="x[i]" style="whiteSpace=wrap;html=1;" vertex="1" parent="1">
          <mxGeometry x="340" y="450" width="120" height="60" as="geometry" />
        </mxCell>
        <mxCell id="_CZaPzuoKHNaPqmI9wYe-20" style="edgeStyle=orthogonalEdgeStyle;rounded=0;orthogonalLoop=1;jettySize=auto;html=1;exitX=0.5;exitY=0;exitDx=0;exitDy=0;" edge="1" parent="1" source="_CZaPzuoKHNaPqmI9wYe-18">
          <mxGeometry relative="1" as="geometry">
            <mxPoint x="400" y="310" as="targetPoint" />
            <Array as="points">
              <mxPoint x="560" y="310" />
              <mxPoint x="400" y="310" />
            </Array>
          </mxGeometry>
        </mxCell>
        <mxCell id="_CZaPzuoKHNaPqmI9wYe-18" value="i++" style="whiteSpace=wrap;html=1;" vertex="1" parent="1">
          <mxGeometry x="500" y="400" width="120" height="60" as="geometry" />
        </mxCell>
        <mxCell id="_CZaPzuoKHNaPqmI9wYe-23" style="edgeStyle=orthogonalEdgeStyle;rounded=0;orthogonalLoop=1;jettySize=auto;html=1;entryX=0.5;entryY=1;entryDx=0;entryDy=0;" edge="1" parent="1" source="_CZaPzuoKHNaPqmI9wYe-21" target="_CZaPzuoKHNaPqmI9wYe-18">
          <mxGeometry relative="1" as="geometry" />
        </mxCell>
        <mxCell id="_CZaPzuoKHNaPqmI9wYe-21" value="ave += x[i]" style="whiteSpace=wrap;html=1;" vertex="1" parent="1">
          <mxGeometry x="340" y="550" width="120" height="60" as="geometry" />
        </mxCell>
        <mxCell id="_CZaPzuoKHNaPqmI9wYe-28" value="" style="edgeStyle=orthogonalEdgeStyle;rounded=0;orthogonalLoop=1;jettySize=auto;html=1;entryX=0.5;entryY=0;entryDx=0;entryDy=0;" edge="1" parent="1" source="_CZaPzuoKHNaPqmI9wYe-25" target="_CZaPzuoKHNaPqmI9wYe-40">
          <mxGeometry relative="1" as="geometry">
            <mxPoint x="400" y="790" as="targetPoint" />
          </mxGeometry>
        </mxCell>
        <mxCell id="_CZaPzuoKHNaPqmI9wYe-25" value="ave = ave / n" style="whiteSpace=wrap;html=1;" vertex="1" parent="1">
          <mxGeometry x="340" y="660" width="120" height="60" as="geometry" />
        </mxCell>
        <mxCell id="_CZaPzuoKHNaPqmI9wYe-29" value="" style="edgeStyle=orthogonalEdgeStyle;rounded=0;orthogonalLoop=1;jettySize=auto;html=1;exitX=0.5;exitY=1;exitDx=0;exitDy=0;entryX=0.5;entryY=0;entryDx=0;entryDy=0;" edge="1" parent="1" target="_CZaPzuoKHNaPqmI9wYe-37" source="_CZaPzuoKHNaPqmI9wYe-40">
          <mxGeometry relative="1" as="geometry">
            <mxPoint x="394" y="860" as="sourcePoint" />
            <mxPoint x="400" y="920" as="targetPoint" />
          </mxGeometry>
        </mxCell>
        <mxCell id="_CZaPzuoKHNaPqmI9wYe-30" value="Yes" style="edgeLabel;html=1;align=center;verticalAlign=middle;resizable=0;points=[];" vertex="1" connectable="0" parent="_CZaPzuoKHNaPqmI9wYe-29">
          <mxGeometry x="-0.1492" y="-1" relative="1" as="geometry">
            <mxPoint as="offset" />
          </mxGeometry>
        </mxCell>
        <mxCell id="_CZaPzuoKHNaPqmI9wYe-31" value="" style="edgeStyle=orthogonalEdgeStyle;rounded=0;orthogonalLoop=1;jettySize=auto;html=1;exitX=0;exitY=0.5;exitDx=0;exitDy=0;" edge="1" parent="1" target="_CZaPzuoKHNaPqmI9wYe-39" source="_CZaPzuoKHNaPqmI9wYe-40">
          <mxGeometry relative="1" as="geometry">
            <mxPoint x="320" y="820" as="sourcePoint" />
            <mxPoint x="319.97" y="1070" as="targetPoint" />
            <Array as="points">
              <mxPoint x="250" y="820" />
              <mxPoint x="250" y="1070" />
            </Array>
          </mxGeometry>
        </mxCell>
        <mxCell id="_CZaPzuoKHNaPqmI9wYe-32" value="No" style="edgeLabel;html=1;align=center;verticalAlign=middle;resizable=0;points=[];" vertex="1" connectable="0" parent="_CZaPzuoKHNaPqmI9wYe-31">
          <mxGeometry x="-0.1371" y="2" relative="1" as="geometry">
            <mxPoint as="offset" />
          </mxGeometry>
        </mxCell>
        <mxCell id="_CZaPzuoKHNaPqmI9wYe-41" style="edgeStyle=orthogonalEdgeStyle;rounded=0;orthogonalLoop=1;jettySize=auto;html=1;" edge="1" parent="1" source="_CZaPzuoKHNaPqmI9wYe-35">
          <mxGeometry relative="1" as="geometry">
            <mxPoint x="400" y="750" as="targetPoint" />
            <Array as="points">
              <mxPoint x="554" y="750" />
              <mxPoint x="400" y="750" />
            </Array>
          </mxGeometry>
        </mxCell>
        <mxCell id="_CZaPzuoKHNaPqmI9wYe-35" value="i++" style="whiteSpace=wrap;html=1;" vertex="1" parent="1">
          <mxGeometry x="494" y="850" width="120" height="60" as="geometry" />
        </mxCell>
        <mxCell id="_CZaPzuoKHNaPqmI9wYe-36" style="edgeStyle=orthogonalEdgeStyle;rounded=0;orthogonalLoop=1;jettySize=auto;html=1;entryX=0.5;entryY=1;entryDx=0;entryDy=0;" edge="1" parent="1" source="_CZaPzuoKHNaPqmI9wYe-37" target="_CZaPzuoKHNaPqmI9wYe-35">
          <mxGeometry relative="1" as="geometry" />
        </mxCell>
        <mxCell id="_CZaPzuoKHNaPqmI9wYe-37" value="a = sqr(x[i] - ave)" style="whiteSpace=wrap;html=1;" vertex="1" parent="1">
          <mxGeometry x="340" y="940" width="120" height="60" as="geometry" />
        </mxCell>
        <mxCell id="_CZaPzuoKHNaPqmI9wYe-43" value="" style="edgeStyle=orthogonalEdgeStyle;rounded=0;orthogonalLoop=1;jettySize=auto;html=1;" edge="1" parent="1" source="_CZaPzuoKHNaPqmI9wYe-39" target="_CZaPzuoKHNaPqmI9wYe-42">
          <mxGeometry relative="1" as="geometry" />
        </mxCell>
        <mxCell id="_CZaPzuoKHNaPqmI9wYe-39" value="b = a / n" style="whiteSpace=wrap;html=1;" vertex="1" parent="1">
          <mxGeometry x="340" y="1040" width="120" height="60" as="geometry" />
        </mxCell>
        <mxCell id="_CZaPzuoKHNaPqmI9wYe-40" value="i &amp;lt; n" style="rhombus;whiteSpace=wrap;html=1;" vertex="1" parent="1">
          <mxGeometry x="360" y="780" width="80" height="80" as="geometry" />
        </mxCell>
        <mxCell id="_CZaPzuoKHNaPqmI9wYe-45" value="" style="edgeStyle=orthogonalEdgeStyle;rounded=0;orthogonalLoop=1;jettySize=auto;html=1;" edge="1" parent="1" source="_CZaPzuoKHNaPqmI9wYe-42" target="_CZaPzuoKHNaPqmI9wYe-49">
          <mxGeometry relative="1" as="geometry">
            <mxPoint x="400.0344827586207" y="1219.9999999999998" as="targetPoint" />
          </mxGeometry>
        </mxCell>
        <mxCell id="_CZaPzuoKHNaPqmI9wYe-42" value="sd = sqrt(b)" style="whiteSpace=wrap;html=1;" vertex="1" parent="1">
          <mxGeometry x="340" y="1130" width="120" height="60" as="geometry" />
        </mxCell>
        <mxCell id="_CZaPzuoKHNaPqmI9wYe-47" value="end" style="ellipse;whiteSpace=wrap;html=1;" vertex="1" parent="1">
          <mxGeometry x="340" y="1310" width="120" height="50" as="geometry" />
        </mxCell>
        <mxCell id="_CZaPzuoKHNaPqmI9wYe-50" value="" style="edgeStyle=orthogonalEdgeStyle;rounded=0;orthogonalLoop=1;jettySize=auto;html=1;" edge="1" parent="1" source="_CZaPzuoKHNaPqmI9wYe-49" target="_CZaPzuoKHNaPqmI9wYe-47">
          <mxGeometry relative="1" as="geometry" />
        </mxCell>
        <mxCell id="_CZaPzuoKHNaPqmI9wYe-49" value="sd" style="shape=parallelogram;perimeter=parallelogramPerimeter;whiteSpace=wrap;html=1;fixedSize=1;" vertex="1" parent="1">
          <mxGeometry x="340" y="1220" width="120" height="60" as="geometry" />
        </mxCell>
        <mxCell id="_CZaPzuoKHNaPqmI9wYe-51" value="start" style="ellipse;whiteSpace=wrap;html=1;" vertex="1" parent="1">
          <mxGeometry x="340" y="50" width="120" height="50" as="geometry" />
        </mxCell>
      </root>
    </mxGraphModel>
  </diagram>
</mxfile>
